HIERARCHY
ROOT Hips
{
	OFFSET 0.000000 0.000000 0.000000
	CHANNELS 6 Xposition Yposition Zposition Zrotation Yrotation Xrotation 
	JOINT LHipJoint
	{
		OFFSET 0.000000 0.000000 0.000000
		CHANNELS 3 Zrotation Yrotation Xrotation
		JOINT LeftUpLeg
		{
			OFFSET 1.363060 -1.794630 0.839290
			CHANNELS 3 Zrotation Yrotation Xrotation
			JOINT LeftLeg
			{
				OFFSET 2.448110 -6.726130 0.000000
				CHANNELS 3 Zrotation Yrotation Xrotation
				JOINT LeftFoot
				{
					OFFSET 2.562200 -7.039590 0.000000
					CHANNELS 3 Zrotation Yrotation Xrotation
					JOINT LeftToeBase
					{
						OFFSET 0.157640 -0.433110 2.322550
						CHANNELS 3 Zrotation Yrotation Xrotation
						End Site
						{
							OFFSET 0.000000 0.000000 0.000000
						}
					}
				}
			}
		}
	}
	JOINT RHipJoint
	{
		OFFSET 0.000000 0.000000 0.000000
		CHANNELS 3 Zrotation Yrotation Xrotation
		JOINT RightUpLeg
		{
			OFFSET -1.305520 -1.794630 0.839290
			CHANNELS 3 Zrotation Yrotation Xrotation
			JOINT RightLeg
			{
				OFFSET -2.542530 -6.985550 0.000000
				CHANNELS 3 Zrotation Yrotation Xrotation
				JOINT RightFoot
				{
					OFFSET -2.568260 -7.056230 0.000000
					CHANNELS 3 Zrotation Yrotation Xrotation
					JOINT RightToeBase
					{
						OFFSET -0.164730 -0.452590 2.363150
						CHANNELS 3 Zrotation Yrotation Xrotation
						End Site
						{
							OFFSET 0.000000 0.000000 0.000000
						}
					}
				}
			}
		}
	}
	JOINT LowerBack
	{
		OFFSET 0.000000 0.000000 0.000000
		CHANNELS 3 Zrotation Yrotation Xrotation
		JOINT Spine
		{
			OFFSET 0.028270 2.035590 -0.193380
			CHANNELS 3 Zrotation Yrotation Xrotation
			JOINT Spine1
			{
				OFFSET 0.056720 2.048850 -0.042750
				CHANNELS 3 Zrotation Yrotation Xrotation
				JOINT Neck
				{
					OFFSET 0.000000 0.000000 0.000000
					CHANNELS 3 Zrotation Yrotation Xrotation
					JOINT Neck1
					{
						OFFSET -0.054170 1.746240 0.172020
						CHANNELS 3 Zrotation Yrotation Xrotation
						JOINT Head
						{
							OFFSET 0.104070 1.761360 -0.123970
							CHANNELS 3 Zrotation Yrotation Xrotation
							End Site
							{
								OFFSET 0.000000 0.000000 0.000000
							}
						}
					}
				}
				JOINT LeftShoulder
				{
					OFFSET 0.000000 0.000000 0.000000
					CHANNELS 3 Zrotation Yrotation Xrotation
					JOINT LeftArm
					{
						OFFSET 3.362410 1.200890 -0.311210
						CHANNELS 3 Zrotation Yrotation Xrotation
						JOINT LeftForeArm
						{
							OFFSET 4.983000 -0.000000 -0.000000
							CHANNELS 3 Zrotation Yrotation Xrotation
							JOINT LeftHand
							{
								OFFSET 3.483560 -0.000000 -0.000000
								CHANNELS 3 Zrotation Yrotation Xrotation
								JOINT LeftFingerBase
								{
									OFFSET 0.000000 0.000000 0.000000
									CHANNELS 3 Zrotation Yrotation Xrotation
									JOINT LeftHandIndex1
									{
										OFFSET 0.715260 -0.000000 -0.000000
										CHANNELS 3 Zrotation Yrotation Xrotation
										End Site
										{
											OFFSET 0.000000 0.000000 0.000000
										}
									}
								}
								JOINT LThumb
								{
									OFFSET 0.000000 0.000000 0.000000
									CHANNELS 3 Zrotation Yrotation Xrotation
									End Site
									{
										OFFSET 0.000000 0.000000 0.000000
									}
								}
							}
						}
					}
				}
				JOINT RightShoulder
				{
					OFFSET 0.000000 0.000000 0.000000
					CHANNELS 3 Zrotation Yrotation Xrotation
					JOINT RightArm
					{
						OFFSET -3.136600 1.374050 -0.404650
						CHANNELS 3 Zrotation Yrotation Xrotation
						JOINT RightForeArm
						{
							OFFSET -5.241900 -0.000000 -0.000000
							CHANNELS 3 Zrotation Yrotation Xrotation
							JOINT RightHand
							{
								OFFSET -3.444170 -0.000000 -0.000000
								CHANNELS 3 Zrotation Yrotation Xrotation
								JOINT RightFingerBase
								{
									OFFSET 0.000000 0.000000 0.000000
									CHANNELS 3 Zrotation Yrotation Xrotation
									JOINT RightHandIndex1
									{
										OFFSET -0.622530 -0.000000 -0.000000
										CHANNELS 3 Zrotation Yrotation Xrotation
										End Site
										{
											OFFSET 0.000000 0.000000 0.000000
										}
									}
								}
								JOINT RThumb
								{
									OFFSET 0.000000 0.000000 0.000000
									CHANNELS 3 Zrotation Yrotation Xrotation
									End Site
									{
										OFFSET 0.000000 0.000000 0.000000
									}
								}
							}
						}
					}
				}
			}
		}
	}
}
MOTION
Frames: 8
Frame Time: 0.008333
0.419853 17.903107 13.317852 -6.775329 -6.412031 2.592400 -0.441115 4.138958 2.504927 -7.464870 -8.956752 -30.258390 1.062124 9.683673 28.176268 -2.147130 9.995948 9.048615 0.017100 0.845300 2.323100 2.061230 -5.078253 5.289285 29.460380 11.530516 -2.798254 -0.911186 -5.596502 23.569218 0.503186 -2.873581 -2.228655 -0.095000 -1.987400 5.470900 5.009266 1.943650 8.007875 5.032857 3.391736 3.117683 -1.463638 1.438393 -10.163508 -4.755480 -3.904861 -17.352500 0.949381 -3.733509 23.473666 -0.834700 -1.591700 10.890400 -7.149110 3.042708 -1.267047 -80.738912 9.041780 23.258452 13.157422 -22.218990 -2.672095 -0.324471 -0.697297 -7.402987 26.525897 18.075830 9.269300 -7.125000 0.000000 0.000000 -1.250700 50.801700 -0.178800 10.987703 -1.659258 -2.143595 71.643936 7.877544 15.269362 -13.737292 26.729408 -3.917239 0.960774 -0.122341 -2.111887 -17.889925 19.527371 -6.526100 7.125000 0.000000 0.000000 6.113500 -9.471600 5.053800
0.425155 17.905652 13.409309 -6.799721 -6.464148 2.728120 -0.520620 4.111819 2.461100 -7.233607 -9.205099 -30.171364 0.763269 9.234107 26.736568 -2.190890 10.239397 9.453875 0.014231 0.766815 2.107306 2.088379 -5.084039 5.325008 29.380344 11.443944 -2.545054 -0.869709 -5.524608 23.357869 0.462598 -2.765977 -2.343464 -0.091493 -1.950522 5.369034 5.067210 1.939998 7.888488 5.015203 3.386876 3.072819 -1.494447 1.438674 -10.119182 -4.756457 -3.864383 -17.263449 0.957717 -3.689099 23.400038 -0.825613 -1.572145 10.850972 -7.146978 3.040734 -1.266049 -80.799334 9.052803 23.088045 13.102779 -22.135553 -2.650358 -0.327532 -0.693954 -7.328060 26.545460 17.916606 9.201390 -7.125000 0.000000 0.000000 -1.196818 50.628151 -0.166206 10.983855 -1.654803 -2.143706 71.605498 8.015533 15.621957 -13.917555 26.970697 -4.003518 0.958591 -0.109256 -2.292950 -17.994286 19.374064 -6.511487 7.125000 0.000000 0.000000 6.037619 -9.627348 4.971489
0.430387 17.906944 13.500904 -6.813434 -6.509463 2.861975 -0.602495 4.086224 2.418750 -7.013878 -9.457694 -30.072324 0.465684 8.779447 25.292553 -2.231930 10.473246 9.859662 0.011016 0.642188 1.764734 2.116219 -5.090238 5.361406 29.288867 11.348961 -2.297184 -0.827961 -5.452915 23.145540 0.424394 -2.664999 -2.450500 -0.087415 -1.906791 5.248246 5.112005 1.937004 7.756438 4.997016 3.379873 3.040073 -1.516565 1.439412 -10.061017 -4.761227 -3.830450 -17.202529 0.963909 -3.648894 23.338557 -0.817292 -1.554956 10.820788 -7.145745 3.039247 -1.265320 -80.861770 9.040198 22.930589 13.047983 -22.051750 -2.628263 -0.330273 -0.692001 -7.244652 26.562515 17.833875 9.168933 -7.125000 0.000000 0.000000 -1.161608 50.539098 -0.158872 10.979715 -1.649144 -2.142893 71.566807 8.171650 15.946695 -14.093170 27.204542 -4.087446 0.956700 -0.096864 -2.455458 -18.108670 19.226855 -6.502554 7.125000 0.000000 0.000000 5.955374 -9.775156 4.884979
0.435106 17.898885 13.593527 -6.747409 -6.503996 2.981904 -0.702069 4.072154 2.387426 -6.880270 -9.742017 -29.883584 0.177587 8.286751 23.816309 -2.252667 10.635410 10.269388 0.005224 0.173032 0.475551 2.149218 -5.099516 5.402847 29.111956 11.191178 -2.089103 -0.784194 -5.382730 22.925891 0.404002 -2.613498 -2.499505 -0.079072 -1.811886 4.986169 5.058612 1.938930 7.529847 4.974855 3.356868 3.097805 -1.473794 1.443570 -9.899511 -4.794317 -3.845383 -17.351655 0.954095 -3.640093 23.367777 -0.814689 -1.555435 10.859632 -7.151223 3.041390 -1.266595 -80.939251 8.851161 22.869839 12.992045 -21.965220 -2.603486 -0.330631 -0.700434 -7.097927 26.560836 18.322291 9.401200 -7.125000 0.000000 0.000000 -1.265811 51.080947 -0.190808 10.973392 -1.634493 -2.135191 71.526223 8.463126 16.063440 -14.234072 27.382806 -4.153821 0.956988 -0.089641 -2.479419 -18.297901 19.125178 -6.536031 7.125000 0.000000 0.000000 5.825610 -9.863684 4.767119
0.439749 17.890776 13.686838 -6.690364 -6.500478 3.092235 -0.800899 4.060412 2.357926 -6.734912 -10.026928 -29.677872 -0.104259 7.791687 22.346839 -2.267883 10.773845 10.654507 0.002143 -0.248877 -0.683841 2.180853 -5.109255 5.444355 28.947093 11.019653 -1.876967 -0.742342 -5.314572 22.713868 0.382881 -2.560941 -2.556840 -0.072248 -1.733940 4.770937 5.019914 1.946292 7.318184 4.948095 3.344232 3.146989 -1.445171 1.450895 -9.750121 -4.820034 -3.863021 -17.458573 0.946525 -3.643029 23.377257 -0.814131 -1.560482 10.883752 -7.155435 3.042362 -1.267469 -81.010132 8.684008 22.800816 12.925908 -21.862383 -2.575387 -0.330725 -0.705530 -6.970638 26.515065 18.642227 9.535345 -7.125000 0.000000 0.000000 -1.379316 51.427658 -0.217974 10.967792 -1.622039 -2.128807 71.496054 8.730208 16.172715 -14.373443 27.558788 -4.219231 0.957876 -0.082999 -2.511101 -18.494835 19.042210 -6.578684 7.125000 0.000000 0.000000 5.691579 -9.931137 4.648330
0.444150 17.882505 13.782378 -6.662350 -6.503258 3.171535 -0.897326 4.056198 2.334326 -6.551562 -10.313738 -29.417281 -0.365894 7.288972 20.899266 -2.265247 10.835561 10.960060 0.007829 -0.518022 -1.423576 2.208080 -5.120481 5.486078 28.821187 10.803692 -1.651721 -0.706678 -5.252974 22.526507 0.359401 -2.504972 -2.641106 -0.070335 -1.710825 4.707172 5.028732 1.971234 7.154787 4.906469 3.365126 3.168533 -1.462293 1.468458 -9.639902 -4.821912 -3.889403 -17.429022 0.946214 -3.683914 23.322911 -0.820189 -1.580303 10.860265 -7.155555 3.039552 -1.267043 -81.059673 8.587613 22.705045 12.826795 -21.706818 -2.536546 -0.329969 -0.699834 -6.906189 26.326734 18.417407 9.352231 -7.125000 0.000000 0.000000 -1.522895 51.143422 -0.229718 10.964535 -1.616694 -2.126686 71.499558 8.918415 16.257833 -14.507865 27.727387 -4.281520 0.960701 -0.078236 -2.567749 -18.716680 19.019733 -6.651005 7.125000 0.000000 0.000000 5.543749 -9.930446 4.526538
0.447461 17.874948 13.878312 -6.688274 -6.516751 3.235484 -0.984881 4.054854 2.310601 -6.294624 -10.631855 -29.137075 -0.611322 6.794370 19.482202 -2.275462 10.919613 11.174061 0.013722 -0.747156 -2.053447 2.231685 -5.132403 5.526789 28.767638 10.591477 -1.394870 -0.675705 -5.193786 22.354087 0.338503 -2.454499 -2.723572 -0.065485 -1.647944 4.533749 5.071557 1.994115 7.039768 4.892084 3.392443 3.157801 -1.487669 1.484903 -9.577031 -4.831133 -3.904568 -17.321194 0.953960 -3.717720 23.257992 -0.821069 -1.596376 10.819173 -7.154077 3.035824 -1.266451 -81.105178 8.587110 22.639819 12.751243 -21.589044 -2.507288 -0.330584 -0.694611 -6.896565 26.235919 18.168749 9.197605 -7.125000 0.000000 0.000000 -1.561845 50.850733 -0.225833 10.961904 -1.614332 -2.126868 71.484397 9.049704 16.402874 -14.641090 27.896874 -4.343481 0.963817 -0.074086 -2.678956 -18.914483 19.036213 -6.728409 7.125000 0.000000 0.000000 5.414070 -9.890611 4.423894
0.448787 17.868692 13.974964 -6.812487 -6.549766 3.271460 -1.056271 4.058739 2.286649 -5.903592 -11.007020 -28.821128 -0.827218 6.314551 18.120730 -2.309093 11.044367 11.221232 0.019992 -0.903382 -2.483121 2.248690 -5.145594 5.565653 28.845940 10.386089 -1.080428 -0.653280 -5.138989 22.208895 0.322308 -2.414040 -2.802755 -0.055282 -1.512601 4.160507 5.176352 2.013243 7.012904 4.927341 3.431467 3.088255 -1.528086 1.499312 -9.600438 -4.853737 -3.899294 -17.070732 0.976389 -3.738624 23.173804 -0.812513 -1.605622 10.746002 -7.149689 3.030423 -1.265555 -81.143329 8.761346 22.630253 12.718624 -21.540132 -2.495490 -0.333698 -0.690251 -6.986844 26.322798 17.876656 9.094889 -7.125000 0.000000 0.000000 -1.410136 50.542638 -0.193472 10.960418 -1.617404 -2.131247 71.435227 9.077276 16.657104 -14.772134 28.067978 -4.404844 0.967460 -0.071052 -2.889586 -19.068478 19.123681 -6.815077 7.125000 0.000000 0.000000 5.317465 -9.779446 4.356143
